<?xml version="1.0" standalone="no"?>
<!DOCTYPE svg PUBLIC "-//W3C//DTD SVG 20010904//EN"
 "http://www.w3.org/TR/2001/REC-SVG-20010904/DTD/svg10.dtd">
<svg version="1.0" xmlns="http://www.w3.org/2000/svg"
 width="766.000000pt" height="766.000000pt" viewBox="0 0 766.000000 766.000000"
 preserveAspectRatio="xMidYMid meet">
<metadata>
Created by potrace 1.11, written by Peter Selinger 2001-2013
</metadata>
<g transform="translate(0.000000,766.000000) scale(0.100000,-0.100000)"
fill="#000000" stroke="none">
<path d="M1290 3815 l0 -3695 480 0 480 0 0 1248 0 1247 396 450 c217 248 403
458 413 468 17 18 59 -44 1126 -1685 609 -937 1113 -1709 1119 -1716 9 -9 133
-12 578 -10 l567 3 -1375 2075 c-1186 1788 -1374 2077 -1365 2093 7 10 585
736 1286 1613 701 877 1275 1597 1275 1600 0 2 -255 4 -567 4 l-568 0 -481
-603 c-264 -331 -912 -1142 -1440 -1802 l-959 -1200 -3 1803 -2 1802 -480 0
-480 0 0 -3695z"/>
</g>
</svg>
